<svg t="1766544475414" class="icon" viewBox="0 0 1024 1024" version="1.1" xmlns="http://www.w3.org/2000/svg" p-id="15854" width="200" height="200"><path d="M398.821053 35.031579H110.484211c-43.115789 0-75.452632 35.031579-75.452632 75.452632v285.642105c0 43.115789 35.031579 75.452632 75.452632 75.452631h285.642105c43.115789 0 75.452632-35.031579 75.452631-75.452631V110.484211c2.694737-40.421053-32.336842-75.452632-72.757894-75.452632z m37.726315 363.789474c0 21.557895-16.168421 37.726316-37.726315 37.726315H110.484211c-21.557895 0-37.726316-16.168421-37.726316-37.726315V110.484211c0-21.557895 16.168421-37.726316 37.726316-37.726316h285.642105c21.557895 0 37.726316 16.168421 37.726316 37.726316v288.336842zM913.515789 35.031579H625.178947c-43.115789 0-75.452632 35.031579-75.452631 75.452632v285.642105c0 43.115789 35.031579 75.452632 75.452631 75.452631h285.642106c43.115789 0 75.452632-35.031579 75.452631-75.452631V110.484211c2.694737-40.421053-32.336842-75.452632-72.757895-75.452632z m37.726316 363.789474c0 21.557895-16.168421 37.726316-37.726316 37.726315H625.178947c-21.557895 0-37.726316-16.168421-37.726315-37.726315V110.484211c0-21.557895 16.168421-37.726316 37.726315-37.726316h285.642106c21.557895 0 37.726316 16.168421 37.726315 37.726316v288.336842zM398.821053 549.726316H110.484211c-43.115789 0-75.452632 35.031579-75.452632 75.452631v285.642106c0 43.115789 35.031579 75.452632 75.452632 75.452631h285.642105c43.115789 0 75.452632-35.031579 75.452631-75.452631V625.178947c2.694737-40.421053-32.336842-75.452632-72.757894-75.452631z m37.726315 363.789473c0 21.557895-16.168421 37.726316-37.726315 37.726316H110.484211c-21.557895 0-37.726316-16.168421-37.726316-37.726316V625.178947c0-21.557895 16.168421-37.726316 37.726316-37.726315h285.642105c21.557895 0 37.726316 16.168421 37.726316 37.726315v288.336842zM913.515789 549.726316H625.178947c-43.115789 0-75.452632 35.031579-75.452631 75.452631v285.642106c0 43.115789 35.031579 75.452632 75.452631 75.452631h285.642106c43.115789 0 75.452632-35.031579 75.452631-75.452631V625.178947c2.694737-40.421053-32.336842-75.452632-72.757895-75.452631z m37.726316 363.789473c0 21.557895-16.168421 37.726316-37.726316 37.726316H625.178947c-21.557895 0-37.726316-16.168421-37.726315-37.726316V625.178947c0-21.557895 16.168421-37.726316 37.726315-37.726315h285.642106c21.557895 0 37.726316 16.168421 37.726315 37.726315v288.336842z" fill="currentColor" p-id="15855"></path></svg>