<svg t="1766545650330" class="icon" viewBox="0 0 1024 1024" version="1.1" xmlns="http://www.w3.org/2000/svg" p-id="1775" width="200" height="200"><path d="M215.578947 37.726316c-61.978947 0-113.178947 51.2-113.178947 113.178947S150.905263 266.778947 215.578947 266.778947s113.178947-51.2 113.178948-113.178947S277.557895 37.726316 215.578947 37.726316z m0 191.326316c-43.115789 0-75.452632-35.031579-75.452631-75.452632S172.463158 75.452632 215.578947 75.452632s75.452632 35.031579 75.452632 75.452631S256 229.052632 215.578947 229.052632zM428.463158 223.663158h476.968421c10.778947 0 18.863158-8.084211 18.863158-18.863158s-8.084211-18.863158-18.863158-18.863158H428.463158c-10.778947 0-18.863158 8.084211-18.863158 18.863158s8.084211 18.863158 18.863158 18.863158zM428.463158 118.568421h288.336842c10.778947 0 18.863158-8.084211 18.863158-18.863158s-10.778947-18.863158-21.557895-18.863158H428.463158c-10.778947 0-18.863158 8.084211-18.863158 18.863158s8.084211 18.863158 18.863158 18.863158zM215.578947 401.515789c-61.978947 0-113.178947 51.2-113.178947 113.178948s51.2 113.178947 113.178947 113.178947 113.178947-51.2 113.178948-113.178947-51.2-113.178947-113.178948-113.178948zM215.578947 592.842105c-43.115789 0-75.452632-35.031579-75.452631-75.452631 0-43.115789 35.031579-75.452632 75.452631-75.452632s75.452632 35.031579 75.452632 75.452632c0 40.421053-35.031579 75.452632-75.452632 75.452631zM902.736842 549.726316H428.463158c-10.778947 0-18.863158 8.084211-18.863158 18.863158s8.084211 18.863158 18.863158 18.863158h476.968421c10.778947 0 18.863158-8.084211 18.863158-18.863158s-10.778947-18.863158-21.557895-18.863158zM428.463158 482.357895h288.336842c10.778947 0 18.863158-8.084211 18.863158-18.863158s-8.084211-18.863158-18.863158-18.863158H428.463158c-10.778947 0-18.863158 8.084211-18.863158 18.863158s8.084211 18.863158 18.863158 18.863158zM215.578947 765.305263c-61.978947 0-113.178947 51.2-113.178947 113.178948s51.2 113.178947 113.178947 113.178947 113.178947-51.2 113.178948-113.178947-51.2-113.178947-113.178948-113.178948z m0 188.631579c-43.115789 0-75.452632-35.031579-75.452631-75.452631s35.031579-75.452632 75.452631-75.452632 75.452632 35.031579 75.452632 75.452632-35.031579 75.452632-75.452632 75.452631zM902.736842 913.515789H428.463158c-10.778947 0-18.863158 8.084211-18.863158 18.863158s8.084211 18.863158 18.863158 18.863158h476.968421c10.778947 0 18.863158-8.084211 18.863158-18.863158s-10.778947-18.863158-21.557895-18.863158zM428.463158 846.147368h288.336842c10.778947 0 18.863158-8.084211 18.863158-18.863157s-10.778947-18.863158-21.557895-18.863158H428.463158c-10.778947 0-18.863158 8.084211-18.863158 18.863158s8.084211 18.863158 18.863158 18.863157z" fill="currentColor" p-id="1776"></path></svg>